<?xml version="1.0" encoding="utf-8" standalone="no"?>
<!DOCTYPE svg PUBLIC "-//W3C//DTD SVG 1.1//EN"
  "http://www.w3.org/Graphics/SVG/1.1/DTD/svg11.dtd">
<svg xmlns:xlink="http://www.w3.org/1999/xlink" width="1080pt" height="1080pt" viewBox="0 0 1080 1080" xmlns="http://www.w3.org/2000/svg" version="1.1">
 <metadata>
  <rdf:RDF xmlns:dc="http://purl.org/dc/elements/1.1/" xmlns:cc="http://creativecommons.org/ns#" xmlns:rdf="http://www.w3.org/1999/02/22-rdf-syntax-ns#">
   <cc:Work>
    <dc:type rdf:resource="http://purl.org/dc/dcmitype/StillImage"/>
    <dc:date>2023-09-16T23:10:44.742188</dc:date>
    <dc:format>image/svg+xml</dc:format>
    <dc:creator>
     <cc:Agent>
      <dc:title>Matplotlib v3.5.2, https://matplotlib.org/</dc:title>
     </cc:Agent>
    </dc:creator>
   </cc:Work>
  </rdf:RDF>
 </metadata>
 <defs>
  <style type="text/css">*{stroke-linejoin: round; stroke-linecap: butt}</style>
 </defs>
 <g id="figure_1">
  <g id="patch_1">
   <path d="M 0 1080 
L 1080 1080 
L 1080 0 
L 0 0 
z
" style="fill: #ffffff"/>
  </g>
  <g id="axes_1">
   <g id="patch_2">
    <path d="M 135 961.2 
L 972 961.2 
L 972 129.6 
L 135 129.6 
z
" style="fill: #ffffff"/>
   </g>
   <g id="matplotlib.axis_1">
    <g id="xtick_1">
     <g id="line2d_1">
      <defs>
       <path id="m6d5628153a" d="M 0 0 
L 0 3.5 
" style="stroke: #000000; stroke-width: 0.8"/>
      </defs>
      <g>
       <use xlink:href="#m6d5628153a" x="253.141148" y="961.2" style="stroke: #000000; stroke-width: 0.8"/>
      </g>
     </g>
     <g id="text_1">
      <!-- $\mathdefault{2^{-17}}$ -->
      <g transform="translate(231.541148 983.396875)scale(0.2 -0.2)">
       <defs>
        <path id="DejaVuSans-32" d="M 1228 531 
L 3431 531 
L 3431 0 
L 469 0 
L 469 531 
Q 828 903 1448 1529 
Q 2069 2156 2228 2338 
Q 2531 2678 2651 2914 
Q 2772 3150 2772 3378 
Q 2772 3750 2511 3984 
Q 2250 4219 1831 4219 
Q 1534 4219 1204 4116 
Q 875 4013 500 3803 
L 500 4441 
Q 881 4594 1212 4672 
Q 1544 4750 1819 4750 
Q 2544 4750 2975 4387 
Q 3406 4025 3406 3419 
Q 3406 3131 3298 2873 
Q 3191 2616 2906 2266 
Q 2828 2175 2409 1742 
Q 1991 1309 1228 531 
z
" transform="scale(0.015625)"/>
        <path id="DejaVuSans-2212" d="M 678 2272 
L 4684 2272 
L 4684 1741 
L 678 1741 
L 678 2272 
z
" transform="scale(0.015625)"/>
        <path id="DejaVuSans-31" d="M 794 531 
L 1825 531 
L 1825 4091 
L 703 3866 
L 703 4441 
L 1819 4666 
L 2450 4666 
L 2450 531 
L 3481 531 
L 3481 0 
L 794 0 
L 794 531 
z
" transform="scale(0.015625)"/>
        <path id="DejaVuSans-37" d="M 525 4666 
L 3525 4666 
L 3525 4397 
L 1831 0 
L 1172 0 
L 2766 4134 
L 525 4134 
L 525 4666 
z
" transform="scale(0.015625)"/>
       </defs>
       <use xlink:href="#DejaVuSans-32" transform="translate(0 0.684375)"/>
       <use xlink:href="#DejaVuSans-2212" transform="translate(64.580078 38.965625)scale(0.7)"/>
       <use xlink:href="#DejaVuSans-31" transform="translate(123.232422 38.965625)scale(0.7)"/>
       <use xlink:href="#DejaVuSans-37" transform="translate(167.768555 38.965625)scale(0.7)"/>
      </g>
     </g>
    </g>
    <g id="xtick_2">
     <g id="line2d_2">
      <g>
       <use xlink:href="#m6d5628153a" x="373.284689" y="961.2" style="stroke: #000000; stroke-width: 0.8"/>
      </g>
     </g>
     <g id="text_2">
      <!-- $\mathdefault{2^{-14}}$ -->
      <g transform="translate(351.684689 983.396875)scale(0.2 -0.2)">
       <defs>
        <path id="DejaVuSans-34" d="M 2419 4116 
L 825 1625 
L 2419 1625 
L 2419 4116 
z
M 2253 4666 
L 3047 4666 
L 3047 1625 
L 3713 1625 
L 3713 1100 
L 3047 1100 
L 3047 0 
L 2419 0 
L 2419 1100 
L 313 1100 
L 313 1709 
L 2253 4666 
z
" transform="scale(0.015625)"/>
       </defs>
       <use xlink:href="#DejaVuSans-32" transform="translate(0 0.684375)"/>
       <use xlink:href="#DejaVuSans-2212" transform="translate(64.580078 38.965625)scale(0.7)"/>
       <use xlink:href="#DejaVuSans-31" transform="translate(123.232422 38.965625)scale(0.7)"/>
       <use xlink:href="#DejaVuSans-34" transform="translate(167.768555 38.965625)scale(0.7)"/>
      </g>
     </g>
    </g>
    <g id="xtick_3">
     <g id="line2d_3">
      <g>
       <use xlink:href="#m6d5628153a" x="493.42823" y="961.2" style="stroke: #000000; stroke-width: 0.8"/>
      </g>
     </g>
     <g id="text_3">
      <!-- $\mathdefault{2^{-11}}$ -->
      <g transform="translate(471.82823 983.396875)scale(0.2 -0.2)">
       <use xlink:href="#DejaVuSans-32" transform="translate(0 0.684375)"/>
       <use xlink:href="#DejaVuSans-2212" transform="translate(64.580078 38.965625)scale(0.7)"/>
       <use xlink:href="#DejaVuSans-31" transform="translate(123.232422 38.965625)scale(0.7)"/>
       <use xlink:href="#DejaVuSans-31" transform="translate(167.768555 38.965625)scale(0.7)"/>
      </g>
     </g>
    </g>
    <g id="xtick_4">
     <g id="line2d_4">
      <g>
       <use xlink:href="#m6d5628153a" x="613.57177" y="961.2" style="stroke: #000000; stroke-width: 0.8"/>
      </g>
     </g>
     <g id="text_4">
      <!-- $\mathdefault{2^{-8}}$ -->
      <g transform="translate(596.47177 983.396875)scale(0.2 -0.2)">
       <defs>
        <path id="DejaVuSans-38" d="M 2034 2216 
Q 1584 2216 1326 1975 
Q 1069 1734 1069 1313 
Q 1069 891 1326 650 
Q 1584 409 2034 409 
Q 2484 409 2743 651 
Q 3003 894 3003 1313 
Q 3003 1734 2745 1975 
Q 2488 2216 2034 2216 
z
M 1403 2484 
Q 997 2584 770 2862 
Q 544 3141 544 3541 
Q 544 4100 942 4425 
Q 1341 4750 2034 4750 
Q 2731 4750 3128 4425 
Q 3525 4100 3525 3541 
Q 3525 3141 3298 2862 
Q 3072 2584 2669 2484 
Q 3125 2378 3379 2068 
Q 3634 1759 3634 1313 
Q 3634 634 3220 271 
Q 2806 -91 2034 -91 
Q 1263 -91 848 271 
Q 434 634 434 1313 
Q 434 1759 690 2068 
Q 947 2378 1403 2484 
z
M 1172 3481 
Q 1172 3119 1398 2916 
Q 1625 2713 2034 2713 
Q 2441 2713 2670 2916 
Q 2900 3119 2900 3481 
Q 2900 3844 2670 4047 
Q 2441 4250 2034 4250 
Q 1625 4250 1398 4047 
Q 1172 3844 1172 3481 
z
" transform="scale(0.015625)"/>
       </defs>
       <use xlink:href="#DejaVuSans-32" transform="translate(0 0.765625)"/>
       <use xlink:href="#DejaVuSans-2212" transform="translate(64.580078 39.046875)scale(0.7)"/>
       <use xlink:href="#DejaVuSans-38" transform="translate(123.232422 39.046875)scale(0.7)"/>
      </g>
     </g>
    </g>
    <g id="xtick_5">
     <g id="line2d_5">
      <g>
       <use xlink:href="#m6d5628153a" x="733.715311" y="961.2" style="stroke: #000000; stroke-width: 0.8"/>
      </g>
     </g>
     <g id="text_5">
      <!-- $\mathdefault{2^{-5}}$ -->
      <g transform="translate(716.615311 983.396875)scale(0.2 -0.2)">
       <defs>
        <path id="DejaVuSans-35" d="M 691 4666 
L 3169 4666 
L 3169 4134 
L 1269 4134 
L 1269 2991 
Q 1406 3038 1543 3061 
Q 1681 3084 1819 3084 
Q 2600 3084 3056 2656 
Q 3513 2228 3513 1497 
Q 3513 744 3044 326 
Q 2575 -91 1722 -91 
Q 1428 -91 1123 -41 
Q 819 9 494 109 
L 494 744 
Q 775 591 1075 516 
Q 1375 441 1709 441 
Q 2250 441 2565 725 
Q 2881 1009 2881 1497 
Q 2881 1984 2565 2268 
Q 2250 2553 1709 2553 
Q 1456 2553 1204 2497 
Q 953 2441 691 2322 
L 691 4666 
z
" transform="scale(0.015625)"/>
       </defs>
       <use xlink:href="#DejaVuSans-32" transform="translate(0 0.684375)"/>
       <use xlink:href="#DejaVuSans-2212" transform="translate(64.580078 38.965625)scale(0.7)"/>
       <use xlink:href="#DejaVuSans-35" transform="translate(123.232422 38.965625)scale(0.7)"/>
      </g>
     </g>
    </g>
    <g id="xtick_6">
     <g id="line2d_6">
      <g>
       <use xlink:href="#m6d5628153a" x="853.858852" y="961.2" style="stroke: #000000; stroke-width: 0.8"/>
      </g>
     </g>
     <g id="text_6">
      <!-- $\mathdefault{2^{-2}}$ -->
      <g transform="translate(836.758852 983.396875)scale(0.2 -0.2)">
       <use xlink:href="#DejaVuSans-32" transform="translate(0 0.765625)"/>
       <use xlink:href="#DejaVuSans-2212" transform="translate(64.580078 39.046875)scale(0.7)"/>
       <use xlink:href="#DejaVuSans-32" transform="translate(123.232422 39.046875)scale(0.7)"/>
      </g>
     </g>
    </g>
    <g id="text_7">
     <!-- step size -->
     <g transform="translate(509.301562 1006.753125)scale(0.2 -0.2)">
      <defs>
       <path id="DejaVuSans-73" d="M 2834 3397 
L 2834 2853 
Q 2591 2978 2328 3040 
Q 2066 3103 1784 3103 
Q 1356 3103 1142 2972 
Q 928 2841 928 2578 
Q 928 2378 1081 2264 
Q 1234 2150 1697 2047 
L 1894 2003 
Q 2506 1872 2764 1633 
Q 3022 1394 3022 966 
Q 3022 478 2636 193 
Q 2250 -91 1575 -91 
Q 1294 -91 989 -36 
Q 684 19 347 128 
L 347 722 
Q 666 556 975 473 
Q 1284 391 1588 391 
Q 1994 391 2212 530 
Q 2431 669 2431 922 
Q 2431 1156 2273 1281 
Q 2116 1406 1581 1522 
L 1381 1569 
Q 847 1681 609 1914 
Q 372 2147 372 2553 
Q 372 3047 722 3315 
Q 1072 3584 1716 3584 
Q 2034 3584 2315 3537 
Q 2597 3491 2834 3397 
z
" transform="scale(0.015625)"/>
       <path id="DejaVuSans-74" d="M 1172 4494 
L 1172 3500 
L 2356 3500 
L 2356 3053 
L 1172 3053 
L 1172 1153 
Q 1172 725 1289 603 
Q 1406 481 1766 481 
L 2356 481 
L 2356 0 
L 1766 0 
Q 1100 0 847 248 
Q 594 497 594 1153 
L 594 3053 
L 172 3053 
L 172 3500 
L 594 3500 
L 594 4494 
L 1172 4494 
z
" transform="scale(0.015625)"/>
       <path id="DejaVuSans-65" d="M 3597 1894 
L 3597 1613 
L 953 1613 
Q 991 1019 1311 708 
Q 1631 397 2203 397 
Q 2534 397 2845 478 
Q 3156 559 3463 722 
L 3463 178 
Q 3153 47 2828 -22 
Q 2503 -91 2169 -91 
Q 1331 -91 842 396 
Q 353 884 353 1716 
Q 353 2575 817 3079 
Q 1281 3584 2069 3584 
Q 2775 3584 3186 3129 
Q 3597 2675 3597 1894 
z
M 3022 2063 
Q 3016 2534 2758 2815 
Q 2500 3097 2075 3097 
Q 1594 3097 1305 2825 
Q 1016 2553 972 2059 
L 3022 2063 
z
" transform="scale(0.015625)"/>
       <path id="DejaVuSans-70" d="M 1159 525 
L 1159 -1331 
L 581 -1331 
L 581 3500 
L 1159 3500 
L 1159 2969 
Q 1341 3281 1617 3432 
Q 1894 3584 2278 3584 
Q 2916 3584 3314 3078 
Q 3713 2572 3713 1747 
Q 3713 922 3314 415 
Q 2916 -91 2278 -91 
Q 1894 -91 1617 61 
Q 1341 213 1159 525 
z
M 3116 1747 
Q 3116 2381 2855 2742 
Q 2594 3103 2138 3103 
Q 1681 3103 1420 2742 
Q 1159 2381 1159 1747 
Q 1159 1113 1420 752 
Q 1681 391 2138 391 
Q 2594 391 2855 752 
Q 3116 1113 3116 1747 
z
" transform="scale(0.015625)"/>
       <path id="DejaVuSans-20" transform="scale(0.015625)"/>
       <path id="DejaVuSans-69" d="M 603 3500 
L 1178 3500 
L 1178 0 
L 603 0 
L 603 3500 
z
M 603 4863 
L 1178 4863 
L 1178 4134 
L 603 4134 
L 603 4863 
z
" transform="scale(0.015625)"/>
       <path id="DejaVuSans-7a" d="M 353 3500 
L 3084 3500 
L 3084 2975 
L 922 459 
L 3084 459 
L 3084 0 
L 275 0 
L 275 525 
L 2438 3041 
L 353 3041 
L 353 3500 
z
" transform="scale(0.015625)"/>
      </defs>
      <use xlink:href="#DejaVuSans-73"/>
      <use xlink:href="#DejaVuSans-74" x="52.099609"/>
      <use xlink:href="#DejaVuSans-65" x="91.308594"/>
      <use xlink:href="#DejaVuSans-70" x="152.832031"/>
      <use xlink:href="#DejaVuSans-20" x="216.308594"/>
      <use xlink:href="#DejaVuSans-73" x="248.095703"/>
      <use xlink:href="#DejaVuSans-69" x="300.195312"/>
      <use xlink:href="#DejaVuSans-7a" x="327.978516"/>
      <use xlink:href="#DejaVuSans-65" x="380.46875"/>
     </g>
    </g>
   </g>
   <g id="matplotlib.axis_2">
    <g id="ytick_1">
     <g id="line2d_7">
      <defs>
       <path id="m40c9ff5f75" d="M 0 0 
L -3.5 0 
" style="stroke: #000000; stroke-width: 0.8"/>
      </defs>
      <g>
       <use xlink:href="#m40c9ff5f75" x="135" y="904.411995" style="stroke: #000000; stroke-width: 0.8"/>
      </g>
     </g>
     <g id="text_8">
      <!-- $\mathdefault{10^{-14}}$ -->
      <g transform="translate(72.2 912.010432)scale(0.2 -0.2)">
       <defs>
        <path id="DejaVuSans-30" d="M 2034 4250 
Q 1547 4250 1301 3770 
Q 1056 3291 1056 2328 
Q 1056 1369 1301 889 
Q 1547 409 2034 409 
Q 2525 409 2770 889 
Q 3016 1369 3016 2328 
Q 3016 3291 2770 3770 
Q 2525 4250 2034 4250 
z
M 2034 4750 
Q 2819 4750 3233 4129 
Q 3647 3509 3647 2328 
Q 3647 1150 3233 529 
Q 2819 -91 2034 -91 
Q 1250 -91 836 529 
Q 422 1150 422 2328 
Q 422 3509 836 4129 
Q 1250 4750 2034 4750 
z
" transform="scale(0.015625)"/>
       </defs>
       <use xlink:href="#DejaVuSans-31" transform="translate(0 0.684375)"/>
       <use xlink:href="#DejaVuSans-30" transform="translate(63.623047 0.684375)"/>
       <use xlink:href="#DejaVuSans-2212" transform="translate(128.203125 38.965625)scale(0.7)"/>
       <use xlink:href="#DejaVuSans-31" transform="translate(186.855469 38.965625)scale(0.7)"/>
       <use xlink:href="#DejaVuSans-34" transform="translate(231.391602 38.965625)scale(0.7)"/>
      </g>
     </g>
    </g>
    <g id="ytick_2">
     <g id="line2d_8">
      <g>
       <use xlink:href="#m40c9ff5f75" x="135" y="796.687731" style="stroke: #000000; stroke-width: 0.8"/>
      </g>
     </g>
     <g id="text_9">
      <!-- $\mathdefault{10^{-12}}$ -->
      <g transform="translate(72.2 804.286168)scale(0.2 -0.2)">
       <use xlink:href="#DejaVuSans-31" transform="translate(0 0.765625)"/>
       <use xlink:href="#DejaVuSans-30" transform="translate(63.623047 0.765625)"/>
       <use xlink:href="#DejaVuSans-2212" transform="translate(128.203125 39.046875)scale(0.7)"/>
       <use xlink:href="#DejaVuSans-31" transform="translate(186.855469 39.046875)scale(0.7)"/>
       <use xlink:href="#DejaVuSans-32" transform="translate(231.391602 39.046875)scale(0.7)"/>
      </g>
     </g>
    </g>
    <g id="ytick_3">
     <g id="line2d_9">
      <g>
       <use xlink:href="#m40c9ff5f75" x="135" y="688.963467" style="stroke: #000000; stroke-width: 0.8"/>
      </g>
     </g>
     <g id="text_10">
      <!-- $\mathdefault{10^{-10}}$ -->
      <g transform="translate(72.2 696.561904)scale(0.2 -0.2)">
       <use xlink:href="#DejaVuSans-31" transform="translate(0 0.765625)"/>
       <use xlink:href="#DejaVuSans-30" transform="translate(63.623047 0.765625)"/>
       <use xlink:href="#DejaVuSans-2212" transform="translate(128.203125 39.046875)scale(0.7)"/>
       <use xlink:href="#DejaVuSans-31" transform="translate(186.855469 39.046875)scale(0.7)"/>
       <use xlink:href="#DejaVuSans-30" transform="translate(231.391602 39.046875)scale(0.7)"/>
      </g>
     </g>
    </g>
    <g id="ytick_4">
     <g id="line2d_10">
      <g>
       <use xlink:href="#m40c9ff5f75" x="135" y="581.239203" style="stroke: #000000; stroke-width: 0.8"/>
      </g>
     </g>
     <g id="text_11">
      <!-- $\mathdefault{10^{-8}}$ -->
      <g transform="translate(81 588.83764)scale(0.2 -0.2)">
       <use xlink:href="#DejaVuSans-31" transform="translate(0 0.765625)"/>
       <use xlink:href="#DejaVuSans-30" transform="translate(63.623047 0.765625)"/>
       <use xlink:href="#DejaVuSans-2212" transform="translate(128.203125 39.046875)scale(0.7)"/>
       <use xlink:href="#DejaVuSans-38" transform="translate(186.855469 39.046875)scale(0.7)"/>
      </g>
     </g>
    </g>
    <g id="ytick_5">
     <g id="line2d_11">
      <g>
       <use xlink:href="#m40c9ff5f75" x="135" y="473.514939" style="stroke: #000000; stroke-width: 0.8"/>
      </g>
     </g>
     <g id="text_12">
      <!-- $\mathdefault{10^{-6}}$ -->
      <g transform="translate(81 481.113376)scale(0.2 -0.2)">
       <defs>
        <path id="DejaVuSans-36" d="M 2113 2584 
Q 1688 2584 1439 2293 
Q 1191 2003 1191 1497 
Q 1191 994 1439 701 
Q 1688 409 2113 409 
Q 2538 409 2786 701 
Q 3034 994 3034 1497 
Q 3034 2003 2786 2293 
Q 2538 2584 2113 2584 
z
M 3366 4563 
L 3366 3988 
Q 3128 4100 2886 4159 
Q 2644 4219 2406 4219 
Q 1781 4219 1451 3797 
Q 1122 3375 1075 2522 
Q 1259 2794 1537 2939 
Q 1816 3084 2150 3084 
Q 2853 3084 3261 2657 
Q 3669 2231 3669 1497 
Q 3669 778 3244 343 
Q 2819 -91 2113 -91 
Q 1303 -91 875 529 
Q 447 1150 447 2328 
Q 447 3434 972 4092 
Q 1497 4750 2381 4750 
Q 2619 4750 2861 4703 
Q 3103 4656 3366 4563 
z
" transform="scale(0.015625)"/>
       </defs>
       <use xlink:href="#DejaVuSans-31" transform="translate(0 0.765625)"/>
       <use xlink:href="#DejaVuSans-30" transform="translate(63.623047 0.765625)"/>
       <use xlink:href="#DejaVuSans-2212" transform="translate(128.203125 39.046875)scale(0.7)"/>
       <use xlink:href="#DejaVuSans-36" transform="translate(186.855469 39.046875)scale(0.7)"/>
      </g>
     </g>
    </g>
    <g id="ytick_6">
     <g id="line2d_12">
      <g>
       <use xlink:href="#m40c9ff5f75" x="135" y="365.790675" style="stroke: #000000; stroke-width: 0.8"/>
      </g>
     </g>
     <g id="text_13">
      <!-- $\mathdefault{10^{-4}}$ -->
      <g transform="translate(81 373.389112)scale(0.2 -0.2)">
       <use xlink:href="#DejaVuSans-31" transform="translate(0 0.684375)"/>
       <use xlink:href="#DejaVuSans-30" transform="translate(63.623047 0.684375)"/>
       <use xlink:href="#DejaVuSans-2212" transform="translate(128.203125 38.965625)scale(0.7)"/>
       <use xlink:href="#DejaVuSans-34" transform="translate(186.855469 38.965625)scale(0.7)"/>
      </g>
     </g>
    </g>
    <g id="ytick_7">
     <g id="line2d_13">
      <g>
       <use xlink:href="#m40c9ff5f75" x="135" y="258.066411" style="stroke: #000000; stroke-width: 0.8"/>
      </g>
     </g>
     <g id="text_14">
      <!-- $\mathdefault{10^{-2}}$ -->
      <g transform="translate(81 265.664848)scale(0.2 -0.2)">
       <use xlink:href="#DejaVuSans-31" transform="translate(0 0.765625)"/>
       <use xlink:href="#DejaVuSans-30" transform="translate(63.623047 0.765625)"/>
       <use xlink:href="#DejaVuSans-2212" transform="translate(128.203125 39.046875)scale(0.7)"/>
       <use xlink:href="#DejaVuSans-32" transform="translate(186.855469 39.046875)scale(0.7)"/>
      </g>
     </g>
    </g>
    <g id="ytick_8">
     <g id="line2d_14">
      <g>
       <use xlink:href="#m40c9ff5f75" x="135" y="150.342147" style="stroke: #000000; stroke-width: 0.8"/>
      </g>
     </g>
     <g id="text_15">
      <!-- $\mathdefault{10^{0}}$ -->
      <g transform="translate(92.8 157.940584)scale(0.2 -0.2)">
       <use xlink:href="#DejaVuSans-31" transform="translate(0 0.765625)"/>
       <use xlink:href="#DejaVuSans-30" transform="translate(63.623047 0.765625)"/>
       <use xlink:href="#DejaVuSans-30" transform="translate(128.203125 39.046875)scale(0.7)"/>
      </g>
     </g>
    </g>
    <g id="text_16">
     <!-- computational error -->
     <g transform="translate(64.040625 644.935937)rotate(-90)scale(0.2 -0.2)">
      <defs>
       <path id="DejaVuSans-63" d="M 3122 3366 
L 3122 2828 
Q 2878 2963 2633 3030 
Q 2388 3097 2138 3097 
Q 1578 3097 1268 2742 
Q 959 2388 959 1747 
Q 959 1106 1268 751 
Q 1578 397 2138 397 
Q 2388 397 2633 464 
Q 2878 531 3122 666 
L 3122 134 
Q 2881 22 2623 -34 
Q 2366 -91 2075 -91 
Q 1284 -91 818 406 
Q 353 903 353 1747 
Q 353 2603 823 3093 
Q 1294 3584 2113 3584 
Q 2378 3584 2631 3529 
Q 2884 3475 3122 3366 
z
" transform="scale(0.015625)"/>
       <path id="DejaVuSans-6f" d="M 1959 3097 
Q 1497 3097 1228 2736 
Q 959 2375 959 1747 
Q 959 1119 1226 758 
Q 1494 397 1959 397 
Q 2419 397 2687 759 
Q 2956 1122 2956 1747 
Q 2956 2369 2687 2733 
Q 2419 3097 1959 3097 
z
M 1959 3584 
Q 2709 3584 3137 3096 
Q 3566 2609 3566 1747 
Q 3566 888 3137 398 
Q 2709 -91 1959 -91 
Q 1206 -91 779 398 
Q 353 888 353 1747 
Q 353 2609 779 3096 
Q 1206 3584 1959 3584 
z
" transform="scale(0.015625)"/>
       <path id="DejaVuSans-6d" d="M 3328 2828 
Q 3544 3216 3844 3400 
Q 4144 3584 4550 3584 
Q 5097 3584 5394 3201 
Q 5691 2819 5691 2113 
L 5691 0 
L 5113 0 
L 5113 2094 
Q 5113 2597 4934 2840 
Q 4756 3084 4391 3084 
Q 3944 3084 3684 2787 
Q 3425 2491 3425 1978 
L 3425 0 
L 2847 0 
L 2847 2094 
Q 2847 2600 2669 2842 
Q 2491 3084 2119 3084 
Q 1678 3084 1418 2786 
Q 1159 2488 1159 1978 
L 1159 0 
L 581 0 
L 581 3500 
L 1159 3500 
L 1159 2956 
Q 1356 3278 1631 3431 
Q 1906 3584 2284 3584 
Q 2666 3584 2933 3390 
Q 3200 3197 3328 2828 
z
" transform="scale(0.015625)"/>
       <path id="DejaVuSans-75" d="M 544 1381 
L 544 3500 
L 1119 3500 
L 1119 1403 
Q 1119 906 1312 657 
Q 1506 409 1894 409 
Q 2359 409 2629 706 
Q 2900 1003 2900 1516 
L 2900 3500 
L 3475 3500 
L 3475 0 
L 2900 0 
L 2900 538 
Q 2691 219 2414 64 
Q 2138 -91 1772 -91 
Q 1169 -91 856 284 
Q 544 659 544 1381 
z
M 1991 3584 
L 1991 3584 
z
" transform="scale(0.015625)"/>
       <path id="DejaVuSans-61" d="M 2194 1759 
Q 1497 1759 1228 1600 
Q 959 1441 959 1056 
Q 959 750 1161 570 
Q 1363 391 1709 391 
Q 2188 391 2477 730 
Q 2766 1069 2766 1631 
L 2766 1759 
L 2194 1759 
z
M 3341 1997 
L 3341 0 
L 2766 0 
L 2766 531 
Q 2569 213 2275 61 
Q 1981 -91 1556 -91 
Q 1019 -91 701 211 
Q 384 513 384 1019 
Q 384 1609 779 1909 
Q 1175 2209 1959 2209 
L 2766 2209 
L 2766 2266 
Q 2766 2663 2505 2880 
Q 2244 3097 1772 3097 
Q 1472 3097 1187 3025 
Q 903 2953 641 2809 
L 641 3341 
Q 956 3463 1253 3523 
Q 1550 3584 1831 3584 
Q 2591 3584 2966 3190 
Q 3341 2797 3341 1997 
z
" transform="scale(0.015625)"/>
       <path id="DejaVuSans-6e" d="M 3513 2113 
L 3513 0 
L 2938 0 
L 2938 2094 
Q 2938 2591 2744 2837 
Q 2550 3084 2163 3084 
Q 1697 3084 1428 2787 
Q 1159 2491 1159 1978 
L 1159 0 
L 581 0 
L 581 3500 
L 1159 3500 
L 1159 2956 
Q 1366 3272 1645 3428 
Q 1925 3584 2291 3584 
Q 2894 3584 3203 3211 
Q 3513 2838 3513 2113 
z
" transform="scale(0.015625)"/>
       <path id="DejaVuSans-6c" d="M 603 4863 
L 1178 4863 
L 1178 0 
L 603 0 
L 603 4863 
z
" transform="scale(0.015625)"/>
       <path id="DejaVuSans-72" d="M 2631 2963 
Q 2534 3019 2420 3045 
Q 2306 3072 2169 3072 
Q 1681 3072 1420 2755 
Q 1159 2438 1159 1844 
L 1159 0 
L 581 0 
L 581 3500 
L 1159 3500 
L 1159 2956 
Q 1341 3275 1631 3429 
Q 1922 3584 2338 3584 
Q 2397 3584 2469 3576 
Q 2541 3569 2628 3553 
L 2631 2963 
z
" transform="scale(0.015625)"/>
      </defs>
      <use xlink:href="#DejaVuSans-63"/>
      <use xlink:href="#DejaVuSans-6f" x="54.980469"/>
      <use xlink:href="#DejaVuSans-6d" x="116.162109"/>
      <use xlink:href="#DejaVuSans-70" x="213.574219"/>
      <use xlink:href="#DejaVuSans-75" x="277.050781"/>
      <use xlink:href="#DejaVuSans-74" x="340.429688"/>
      <use xlink:href="#DejaVuSans-61" x="379.638672"/>
      <use xlink:href="#DejaVuSans-74" x="440.917969"/>
      <use xlink:href="#DejaVuSans-69" x="480.126953"/>
      <use xlink:href="#DejaVuSans-6f" x="507.910156"/>
      <use xlink:href="#DejaVuSans-6e" x="569.091797"/>
      <use xlink:href="#DejaVuSans-61" x="632.470703"/>
      <use xlink:href="#DejaVuSans-6c" x="693.75"/>
      <use xlink:href="#DejaVuSans-20" x="721.533203"/>
      <use xlink:href="#DejaVuSans-65" x="753.320312"/>
      <use xlink:href="#DejaVuSans-72" x="814.84375"/>
      <use xlink:href="#DejaVuSans-72" x="854.207031"/>
      <use xlink:href="#DejaVuSans-6f" x="893.070312"/>
      <use xlink:href="#DejaVuSans-72" x="954.251953"/>
     </g>
    </g>
   </g>
   <g id="line2d_15">
    <path d="M 933.954545 167.4 
L 893.906699 182.182058 
L 853.858852 198.979191 
L 813.811005 216.037375 
L 773.763158 232.850455 
L 733.715311 249.413918 
L 693.667464 265.815937 
L 653.619617 282.127412 
L 613.57177 298.391072 
L 573.523923 314.630178 
L 533.476077 330.856845 
L 493.42823 347.077251 
L 453.380383 363.294516 
L 413.332536 379.510208 
L 373.284689 395.725112 
L 333.236842 411.939624 
L 293.188995 428.153955 
L 253.141148 444.368255 
L 213.093301 460.582836 
L 173.045455 476.797097 
" clip-path="url(#p4560b661ed)" style="fill: none; stroke: #1f77b4; stroke-width: 1.5; stroke-linecap: square"/>
    <defs>
     <path id="mbe3b9b5c75" d="M 3 0 
L -3 -0 
" style="stroke: #1f77b4"/>
    </defs>
    <g clip-path="url(#p4560b661ed)">
     <use xlink:href="#mbe3b9b5c75" x="933.954545" y="167.4" style="fill: #1f77b4; stroke: #1f77b4"/>
     <use xlink:href="#mbe3b9b5c75" x="893.906699" y="182.182058" style="fill: #1f77b4; stroke: #1f77b4"/>
     <use xlink:href="#mbe3b9b5c75" x="853.858852" y="198.979191" style="fill: #1f77b4; stroke: #1f77b4"/>
     <use xlink:href="#mbe3b9b5c75" x="813.811005" y="216.037375" style="fill: #1f77b4; stroke: #1f77b4"/>
     <use xlink:href="#mbe3b9b5c75" x="773.763158" y="232.850455" style="fill: #1f77b4; stroke: #1f77b4"/>
     <use xlink:href="#mbe3b9b5c75" x="733.715311" y="249.413918" style="fill: #1f77b4; stroke: #1f77b4"/>
     <use xlink:href="#mbe3b9b5c75" x="693.667464" y="265.815937" style="fill: #1f77b4; stroke: #1f77b4"/>
     <use xlink:href="#mbe3b9b5c75" x="653.619617" y="282.127412" style="fill: #1f77b4; stroke: #1f77b4"/>
     <use xlink:href="#mbe3b9b5c75" x="613.57177" y="298.391072" style="fill: #1f77b4; stroke: #1f77b4"/>
     <use xlink:href="#mbe3b9b5c75" x="573.523923" y="314.630178" style="fill: #1f77b4; stroke: #1f77b4"/>
     <use xlink:href="#mbe3b9b5c75" x="533.476077" y="330.856845" style="fill: #1f77b4; stroke: #1f77b4"/>
     <use xlink:href="#mbe3b9b5c75" x="493.42823" y="347.077251" style="fill: #1f77b4; stroke: #1f77b4"/>
     <use xlink:href="#mbe3b9b5c75" x="453.380383" y="363.294516" style="fill: #1f77b4; stroke: #1f77b4"/>
     <use xlink:href="#mbe3b9b5c75" x="413.332536" y="379.510208" style="fill: #1f77b4; stroke: #1f77b4"/>
     <use xlink:href="#mbe3b9b5c75" x="373.284689" y="395.725112" style="fill: #1f77b4; stroke: #1f77b4"/>
     <use xlink:href="#mbe3b9b5c75" x="333.236842" y="411.939624" style="fill: #1f77b4; stroke: #1f77b4"/>
     <use xlink:href="#mbe3b9b5c75" x="293.188995" y="428.153955" style="fill: #1f77b4; stroke: #1f77b4"/>
     <use xlink:href="#mbe3b9b5c75" x="253.141148" y="444.368255" style="fill: #1f77b4; stroke: #1f77b4"/>
     <use xlink:href="#mbe3b9b5c75" x="213.093301" y="460.582836" style="fill: #1f77b4; stroke: #1f77b4"/>
     <use xlink:href="#mbe3b9b5c75" x="173.045455" y="476.797097" style="fill: #1f77b4; stroke: #1f77b4"/>
    </g>
   </g>
   <g id="line2d_16">
    <path d="M 933.954545 245.756904 
L 893.906699 197.903584 
L 853.858852 205.76201 
L 813.811005 219.304638 
L 773.763158 234.468823 
L 733.715311 250.221202 
L 693.667464 266.219342 
L 653.619617 282.329084 
L 613.57177 298.491905 
L 573.523923 314.680594 
L 533.476077 330.882053 
L 493.42823 347.089855 
L 453.380383 363.300817 
L 413.332536 379.513358 
L 373.284689 395.726689 
L 333.236842 411.940408 
L 293.188995 428.154324 
L 253.141148 444.368308 
L 213.093301 460.582549 
L 173.045455 476.796522 
" clip-path="url(#p4560b661ed)" style="fill: none; stroke: #ff7f0e; stroke-width: 1.5; stroke-linecap: square"/>
    <defs>
     <path id="m7915473585" d="M 3 0 
L -3 -0 
" style="stroke: #ff7f0e"/>
    </defs>
    <g clip-path="url(#p4560b661ed)">
     <use xlink:href="#m7915473585" x="933.954545" y="245.756904" style="fill: #ff7f0e; stroke: #ff7f0e"/>
     <use xlink:href="#m7915473585" x="893.906699" y="197.903584" style="fill: #ff7f0e; stroke: #ff7f0e"/>
     <use xlink:href="#m7915473585" x="853.858852" y="205.76201" style="fill: #ff7f0e; stroke: #ff7f0e"/>
     <use xlink:href="#m7915473585" x="813.811005" y="219.304638" style="fill: #ff7f0e; stroke: #ff7f0e"/>
     <use xlink:href="#m7915473585" x="773.763158" y="234.468823" style="fill: #ff7f0e; stroke: #ff7f0e"/>
     <use xlink:href="#m7915473585" x="733.715311" y="250.221202" style="fill: #ff7f0e; stroke: #ff7f0e"/>
     <use xlink:href="#m7915473585" x="693.667464" y="266.219342" style="fill: #ff7f0e; stroke: #ff7f0e"/>
     <use xlink:href="#m7915473585" x="653.619617" y="282.329084" style="fill: #ff7f0e; stroke: #ff7f0e"/>
     <use xlink:href="#m7915473585" x="613.57177" y="298.491905" style="fill: #ff7f0e; stroke: #ff7f0e"/>
     <use xlink:href="#m7915473585" x="573.523923" y="314.680594" style="fill: #ff7f0e; stroke: #ff7f0e"/>
     <use xlink:href="#m7915473585" x="533.476077" y="330.882053" style="fill: #ff7f0e; stroke: #ff7f0e"/>
     <use xlink:href="#m7915473585" x="493.42823" y="347.089855" style="fill: #ff7f0e; stroke: #ff7f0e"/>
     <use xlink:href="#m7915473585" x="453.380383" y="363.300817" style="fill: #ff7f0e; stroke: #ff7f0e"/>
     <use xlink:href="#m7915473585" x="413.332536" y="379.513358" style="fill: #ff7f0e; stroke: #ff7f0e"/>
     <use xlink:href="#m7915473585" x="373.284689" y="395.726689" style="fill: #ff7f0e; stroke: #ff7f0e"/>
     <use xlink:href="#m7915473585" x="333.236842" y="411.940408" style="fill: #ff7f0e; stroke: #ff7f0e"/>
     <use xlink:href="#m7915473585" x="293.188995" y="428.154324" style="fill: #ff7f0e; stroke: #ff7f0e"/>
     <use xlink:href="#m7915473585" x="253.141148" y="444.368308" style="fill: #ff7f0e; stroke: #ff7f0e"/>
     <use xlink:href="#m7915473585" x="213.093301" y="460.582549" style="fill: #ff7f0e; stroke: #ff7f0e"/>
     <use xlink:href="#m7915473585" x="173.045455" y="476.796522" style="fill: #ff7f0e; stroke: #ff7f0e"/>
    </g>
   </g>
   <g id="line2d_17">
    <path d="M 933.954545 184.449786 
L 893.906699 215.113482 
L 853.858852 247.462213 
L 813.811005 279.911972 
L 773.763158 312.348645 
L 733.715311 344.779188 
L 693.667464 377.208013 
L 653.619617 409.636396 
L 613.57177 442.064668 
L 573.523923 474.492911 
L 533.476077 506.921145 
L 493.42823 539.349356 
L 453.380383 571.777852 
L 413.332536 604.21068 
L 373.284689 636.623217 
L 333.236842 669.170624 
L 293.188995 703.032664 
L 253.141148 765.033614 
L 213.093301 741.282043 
L 173.045455 741.282043 
" clip-path="url(#p4560b661ed)" style="fill: none; stroke: #2ca02c; stroke-width: 1.5; stroke-linecap: square"/>
    <defs>
     <path id="m0b4fcc665a" d="M 3 0 
L -3 -0 
" style="stroke: #2ca02c"/>
    </defs>
    <g clip-path="url(#p4560b661ed)">
     <use xlink:href="#m0b4fcc665a" x="933.954545" y="184.449786" style="fill: #2ca02c; stroke: #2ca02c"/>
     <use xlink:href="#m0b4fcc665a" x="893.906699" y="215.113482" style="fill: #2ca02c; stroke: #2ca02c"/>
     <use xlink:href="#m0b4fcc665a" x="853.858852" y="247.462213" style="fill: #2ca02c; stroke: #2ca02c"/>
     <use xlink:href="#m0b4fcc665a" x="813.811005" y="279.911972" style="fill: #2ca02c; stroke: #2ca02c"/>
     <use xlink:href="#m0b4fcc665a" x="773.763158" y="312.348645" style="fill: #2ca02c; stroke: #2ca02c"/>
     <use xlink:href="#m0b4fcc665a" x="733.715311" y="344.779188" style="fill: #2ca02c; stroke: #2ca02c"/>
     <use xlink:href="#m0b4fcc665a" x="693.667464" y="377.208013" style="fill: #2ca02c; stroke: #2ca02c"/>
     <use xlink:href="#m0b4fcc665a" x="653.619617" y="409.636396" style="fill: #2ca02c; stroke: #2ca02c"/>
     <use xlink:href="#m0b4fcc665a" x="613.57177" y="442.064668" style="fill: #2ca02c; stroke: #2ca02c"/>
     <use xlink:href="#m0b4fcc665a" x="573.523923" y="474.492911" style="fill: #2ca02c; stroke: #2ca02c"/>
     <use xlink:href="#m0b4fcc665a" x="533.476077" y="506.921145" style="fill: #2ca02c; stroke: #2ca02c"/>
     <use xlink:href="#m0b4fcc665a" x="493.42823" y="539.349356" style="fill: #2ca02c; stroke: #2ca02c"/>
     <use xlink:href="#m0b4fcc665a" x="453.380383" y="571.777852" style="fill: #2ca02c; stroke: #2ca02c"/>
     <use xlink:href="#m0b4fcc665a" x="413.332536" y="604.21068" style="fill: #2ca02c; stroke: #2ca02c"/>
     <use xlink:href="#m0b4fcc665a" x="373.284689" y="636.623217" style="fill: #2ca02c; stroke: #2ca02c"/>
     <use xlink:href="#m0b4fcc665a" x="333.236842" y="669.170624" style="fill: #2ca02c; stroke: #2ca02c"/>
     <use xlink:href="#m0b4fcc665a" x="293.188995" y="703.032664" style="fill: #2ca02c; stroke: #2ca02c"/>
     <use xlink:href="#m0b4fcc665a" x="253.141148" y="765.033614" style="fill: #2ca02c; stroke: #2ca02c"/>
     <use xlink:href="#m0b4fcc665a" x="213.093301" y="741.282043" style="fill: #2ca02c; stroke: #2ca02c"/>
     <use xlink:href="#m0b4fcc665a" x="173.045455" y="741.282043" style="fill: #2ca02c; stroke: #2ca02c"/>
    </g>
   </g>
   <g id="line2d_18">
    <path d="M 933.954545 204.945722 
L 893.906699 269.717565 
L 853.858852 373.740896 
L 813.811005 436.704876 
L 773.763158 491.052613 
L 733.715311 553.80069 
L 693.667464 618.153338 
L 653.619617 682.883197 
L 613.57177 747.658263 
L 573.523923 815.851837 
L 533.476077 923.4 
L 493.42823 855.658751 
L 453.380383 831.796472 
L 413.332536 797.141916 
L 373.284689 800.815876 
L 333.236842 785.881653 
L 293.188995 760.895028 
L 253.141148 736.496097 
L 213.093301 732.524651 
L 173.045455 741.282043 
" clip-path="url(#p4560b661ed)" style="fill: none; stroke: #d62728; stroke-width: 1.5; stroke-linecap: square"/>
    <defs>
     <path id="m58912bd282" d="M 3 0 
L -3 -0 
" style="stroke: #d62728"/>
    </defs>
    <g clip-path="url(#p4560b661ed)">
     <use xlink:href="#m58912bd282" x="933.954545" y="204.945722" style="fill: #d62728; stroke: #d62728"/>
     <use xlink:href="#m58912bd282" x="893.906699" y="269.717565" style="fill: #d62728; stroke: #d62728"/>
     <use xlink:href="#m58912bd282" x="853.858852" y="373.740896" style="fill: #d62728; stroke: #d62728"/>
     <use xlink:href="#m58912bd282" x="813.811005" y="436.704876" style="fill: #d62728; stroke: #d62728"/>
     <use xlink:href="#m58912bd282" x="773.763158" y="491.052613" style="fill: #d62728; stroke: #d62728"/>
     <use xlink:href="#m58912bd282" x="733.715311" y="553.80069" style="fill: #d62728; stroke: #d62728"/>
     <use xlink:href="#m58912bd282" x="693.667464" y="618.153338" style="fill: #d62728; stroke: #d62728"/>
     <use xlink:href="#m58912bd282" x="653.619617" y="682.883197" style="fill: #d62728; stroke: #d62728"/>
     <use xlink:href="#m58912bd282" x="613.57177" y="747.658263" style="fill: #d62728; stroke: #d62728"/>
     <use xlink:href="#m58912bd282" x="573.523923" y="815.851837" style="fill: #d62728; stroke: #d62728"/>
     <use xlink:href="#m58912bd282" x="533.476077" y="923.4" style="fill: #d62728; stroke: #d62728"/>
     <use xlink:href="#m58912bd282" x="493.42823" y="855.658751" style="fill: #d62728; stroke: #d62728"/>
     <use xlink:href="#m58912bd282" x="453.380383" y="831.796472" style="fill: #d62728; stroke: #d62728"/>
     <use xlink:href="#m58912bd282" x="413.332536" y="797.141916" style="fill: #d62728; stroke: #d62728"/>
     <use xlink:href="#m58912bd282" x="373.284689" y="800.815876" style="fill: #d62728; stroke: #d62728"/>
     <use xlink:href="#m58912bd282" x="333.236842" y="785.881653" style="fill: #d62728; stroke: #d62728"/>
     <use xlink:href="#m58912bd282" x="293.188995" y="760.895028" style="fill: #d62728; stroke: #d62728"/>
     <use xlink:href="#m58912bd282" x="253.141148" y="736.496097" style="fill: #d62728; stroke: #d62728"/>
     <use xlink:href="#m58912bd282" x="213.093301" y="732.524651" style="fill: #d62728; stroke: #d62728"/>
     <use xlink:href="#m58912bd282" x="173.045455" y="741.282043" style="fill: #d62728; stroke: #d62728"/>
    </g>
   </g>
   <g id="line2d_19">
    <path d="M 933.954545 213.436044 
L 893.906699 300.821078 
L 853.858852 344.928082 
L 813.811005 431.66988 
L 773.763158 526.34647 
L 733.715311 622.980106 
L 693.667464 720.105316 
L 653.619617 816.642832 
L 613.57177 882.079349 
L 573.523923 856.247672 
L 533.476077 878.048903 
L 493.42823 853.617994 
L 453.380383 827.450197 
L 413.332536 795.065537 
L 373.284689 793.595864 
L 333.236842 782.556061 
L 293.188995 759.697085 
L 253.141148 734.825484 
L 213.093301 734.033245 
L 173.045455 745.970843 
" clip-path="url(#p4560b661ed)" style="fill: none; stroke: #9467bd; stroke-width: 1.5; stroke-linecap: square"/>
    <defs>
     <path id="m40e5c03fcc" d="M 3 0 
L -3 -0 
" style="stroke: #9467bd"/>
    </defs>
    <g clip-path="url(#p4560b661ed)">
     <use xlink:href="#m40e5c03fcc" x="933.954545" y="213.436044" style="fill: #9467bd; stroke: #9467bd"/>
     <use xlink:href="#m40e5c03fcc" x="893.906699" y="300.821078" style="fill: #9467bd; stroke: #9467bd"/>
     <use xlink:href="#m40e5c03fcc" x="853.858852" y="344.928082" style="fill: #9467bd; stroke: #9467bd"/>
     <use xlink:href="#m40e5c03fcc" x="813.811005" y="431.66988" style="fill: #9467bd; stroke: #9467bd"/>
     <use xlink:href="#m40e5c03fcc" x="773.763158" y="526.34647" style="fill: #9467bd; stroke: #9467bd"/>
     <use xlink:href="#m40e5c03fcc" x="733.715311" y="622.980106" style="fill: #9467bd; stroke: #9467bd"/>
     <use xlink:href="#m40e5c03fcc" x="693.667464" y="720.105316" style="fill: #9467bd; stroke: #9467bd"/>
     <use xlink:href="#m40e5c03fcc" x="653.619617" y="816.642832" style="fill: #9467bd; stroke: #9467bd"/>
     <use xlink:href="#m40e5c03fcc" x="613.57177" y="882.079349" style="fill: #9467bd; stroke: #9467bd"/>
     <use xlink:href="#m40e5c03fcc" x="573.523923" y="856.247672" style="fill: #9467bd; stroke: #9467bd"/>
     <use xlink:href="#m40e5c03fcc" x="533.476077" y="878.048903" style="fill: #9467bd; stroke: #9467bd"/>
     <use xlink:href="#m40e5c03fcc" x="493.42823" y="853.617994" style="fill: #9467bd; stroke: #9467bd"/>
     <use xlink:href="#m40e5c03fcc" x="453.380383" y="827.450197" style="fill: #9467bd; stroke: #9467bd"/>
     <use xlink:href="#m40e5c03fcc" x="413.332536" y="795.065537" style="fill: #9467bd; stroke: #9467bd"/>
     <use xlink:href="#m40e5c03fcc" x="373.284689" y="793.595864" style="fill: #9467bd; stroke: #9467bd"/>
     <use xlink:href="#m40e5c03fcc" x="333.236842" y="782.556061" style="fill: #9467bd; stroke: #9467bd"/>
     <use xlink:href="#m40e5c03fcc" x="293.188995" y="759.697085" style="fill: #9467bd; stroke: #9467bd"/>
     <use xlink:href="#m40e5c03fcc" x="253.141148" y="734.825484" style="fill: #9467bd; stroke: #9467bd"/>
     <use xlink:href="#m40e5c03fcc" x="213.093301" y="734.033245" style="fill: #9467bd; stroke: #9467bd"/>
     <use xlink:href="#m40e5c03fcc" x="173.045455" y="745.970843" style="fill: #9467bd; stroke: #9467bd"/>
    </g>
   </g>
   <g id="patch_3">
    <path d="M 135 961.2 
L 135 129.6 
" style="fill: none; stroke: #000000; stroke-width: 0.8; stroke-linejoin: miter; stroke-linecap: square"/>
   </g>
   <g id="patch_4">
    <path d="M 972 961.2 
L 972 129.6 
" style="fill: none; stroke: #000000; stroke-width: 0.8; stroke-linejoin: miter; stroke-linecap: square"/>
   </g>
   <g id="patch_5">
    <path d="M 135 961.2 
L 972 961.2 
" style="fill: none; stroke: #000000; stroke-width: 0.8; stroke-linejoin: miter; stroke-linecap: square"/>
   </g>
   <g id="patch_6">
    <path d="M 135 129.6 
L 972 129.6 
" style="fill: none; stroke: #000000; stroke-width: 0.8; stroke-linejoin: miter; stroke-linecap: square"/>
   </g>
   <g id="text_17">
    <!-- $exp(sin(cos(x)))$ -->
    <g transform="translate(474.6 123.6)scale(0.2 -0.2)">
     <defs>
      <path id="DejaVuSans-Oblique-65" d="M 3078 2063 
Q 3088 2113 3092 2166 
Q 3097 2219 3097 2272 
Q 3097 2653 2873 2875 
Q 2650 3097 2266 3097 
Q 1838 3097 1509 2826 
Q 1181 2556 1013 2059 
L 3078 2063 
z
M 3578 1613 
L 903 1613 
Q 884 1494 878 1425 
Q 872 1356 872 1306 
Q 872 872 1139 634 
Q 1406 397 1894 397 
Q 2269 397 2603 481 
Q 2938 566 3225 728 
L 3116 159 
Q 2806 34 2476 -28 
Q 2147 -91 1806 -91 
Q 1078 -91 686 257 
Q 294 606 294 1247 
Q 294 1794 489 2264 
Q 684 2734 1063 3103 
Q 1306 3334 1642 3459 
Q 1978 3584 2356 3584 
Q 2950 3584 3301 3228 
Q 3653 2872 3653 2272 
Q 3653 2128 3634 1964 
Q 3616 1800 3578 1613 
z
" transform="scale(0.015625)"/>
      <path id="DejaVuSans-Oblique-78" d="M 3841 3500 
L 2234 1784 
L 3219 0 
L 2559 0 
L 1819 1388 
L 531 0 
L -166 0 
L 1556 1844 
L 641 3500 
L 1300 3500 
L 1972 2234 
L 3144 3500 
L 3841 3500 
z
" transform="scale(0.015625)"/>
      <path id="DejaVuSans-Oblique-70" d="M 3175 2156 
Q 3175 2616 2975 2859 
Q 2775 3103 2400 3103 
Q 2144 3103 1911 2972 
Q 1678 2841 1497 2591 
Q 1319 2344 1212 1994 
Q 1106 1644 1106 1300 
Q 1106 863 1306 627 
Q 1506 391 1875 391 
Q 2147 391 2380 519 
Q 2613 647 2778 891 
Q 2956 1147 3065 1494 
Q 3175 1841 3175 2156 
z
M 1394 2969 
Q 1625 3272 1939 3428 
Q 2253 3584 2638 3584 
Q 3175 3584 3472 3232 
Q 3769 2881 3769 2247 
Q 3769 1728 3584 1258 
Q 3400 788 3053 416 
Q 2822 169 2531 39 
Q 2241 -91 1919 -91 
Q 1547 -91 1294 64 
Q 1041 219 916 525 
L 556 -1331 
L -19 -1331 
L 922 3500 
L 1497 3500 
L 1394 2969 
z
" transform="scale(0.015625)"/>
      <path id="DejaVuSans-28" d="M 1984 4856 
Q 1566 4138 1362 3434 
Q 1159 2731 1159 2009 
Q 1159 1288 1364 580 
Q 1569 -128 1984 -844 
L 1484 -844 
Q 1016 -109 783 600 
Q 550 1309 550 2009 
Q 550 2706 781 3412 
Q 1013 4119 1484 4856 
L 1984 4856 
z
" transform="scale(0.015625)"/>
      <path id="DejaVuSans-Oblique-73" d="M 3200 3397 
L 3091 2853 
Q 2863 2978 2609 3040 
Q 2356 3103 2088 3103 
Q 1634 3103 1373 2948 
Q 1113 2794 1113 2528 
Q 1113 2219 1719 2053 
Q 1766 2041 1788 2034 
L 1972 1978 
Q 2547 1819 2739 1644 
Q 2931 1469 2931 1166 
Q 2931 609 2489 259 
Q 2047 -91 1331 -91 
Q 1053 -91 747 -37 
Q 441 16 72 128 
L 184 722 
Q 500 559 806 475 
Q 1113 391 1394 391 
Q 1816 391 2080 572 
Q 2344 753 2344 1031 
Q 2344 1331 1650 1516 
L 1591 1531 
L 1394 1581 
Q 956 1697 753 1886 
Q 550 2075 550 2369 
Q 550 2928 970 3256 
Q 1391 3584 2113 3584 
Q 2397 3584 2667 3537 
Q 2938 3491 3200 3397 
z
" transform="scale(0.015625)"/>
      <path id="DejaVuSans-Oblique-69" d="M 1172 4863 
L 1747 4863 
L 1606 4134 
L 1031 4134 
L 1172 4863 
z
M 909 3500 
L 1484 3500 
L 800 0 
L 225 0 
L 909 3500 
z
" transform="scale(0.015625)"/>
      <path id="DejaVuSans-Oblique-6e" d="M 3566 2113 
L 3156 0 
L 2578 0 
L 2988 2091 
Q 3016 2238 3031 2350 
Q 3047 2463 3047 2528 
Q 3047 2791 2881 2937 
Q 2716 3084 2419 3084 
Q 1956 3084 1622 2776 
Q 1288 2469 1184 1941 
L 800 0 
L 225 0 
L 903 3500 
L 1478 3500 
L 1363 2950 
Q 1603 3253 1940 3418 
Q 2278 3584 2650 3584 
Q 3113 3584 3367 3334 
Q 3622 3084 3622 2631 
Q 3622 2519 3608 2391 
Q 3594 2263 3566 2113 
z
" transform="scale(0.015625)"/>
      <path id="DejaVuSans-Oblique-63" d="M 3431 3366 
L 3316 2797 
Q 3109 2947 2876 3022 
Q 2644 3097 2394 3097 
Q 2119 3097 1870 3000 
Q 1622 2903 1453 2725 
Q 1184 2453 1037 2087 
Q 891 1722 891 1331 
Q 891 859 1127 628 
Q 1363 397 1844 397 
Q 2081 397 2348 469 
Q 2616 541 2906 684 
L 2797 116 
Q 2547 13 2283 -39 
Q 2019 -91 1741 -91 
Q 1044 -91 669 257 
Q 294 606 294 1253 
Q 294 1797 489 2255 
Q 684 2713 1069 3078 
Q 1331 3328 1684 3456 
Q 2038 3584 2456 3584 
Q 2700 3584 2940 3529 
Q 3181 3475 3431 3366 
z
" transform="scale(0.015625)"/>
      <path id="DejaVuSans-Oblique-6f" d="M 1625 -91 
Q 1009 -91 651 289 
Q 294 669 294 1325 
Q 294 1706 417 2101 
Q 541 2497 738 2766 
Q 1047 3184 1428 3384 
Q 1809 3584 2291 3584 
Q 2888 3584 3255 3212 
Q 3622 2841 3622 2241 
Q 3622 1825 3500 1412 
Q 3378 1000 3181 728 
Q 2875 309 2494 109 
Q 2113 -91 1625 -91 
z
M 891 1344 
Q 891 869 1089 633 
Q 1288 397 1691 397 
Q 2269 397 2648 901 
Q 3028 1406 3028 2181 
Q 3028 2634 2825 2865 
Q 2622 3097 2228 3097 
Q 1903 3097 1650 2945 
Q 1397 2794 1197 2484 
Q 1050 2253 970 1956 
Q 891 1659 891 1344 
z
" transform="scale(0.015625)"/>
      <path id="DejaVuSans-29" d="M 513 4856 
L 1013 4856 
Q 1481 4119 1714 3412 
Q 1947 2706 1947 2009 
Q 1947 1309 1714 600 
Q 1481 -109 1013 -844 
L 513 -844 
Q 928 -128 1133 580 
Q 1338 1288 1338 2009 
Q 1338 2731 1133 3434 
Q 928 4138 513 4856 
z
" transform="scale(0.015625)"/>
     </defs>
     <use xlink:href="#DejaVuSans-Oblique-65" transform="translate(0 0.015625)"/>
     <use xlink:href="#DejaVuSans-Oblique-78" transform="translate(61.523438 0.015625)"/>
     <use xlink:href="#DejaVuSans-Oblique-70" transform="translate(120.703125 0.015625)"/>
     <use xlink:href="#DejaVuSans-28" transform="translate(184.179688 0.015625)"/>
     <use xlink:href="#DejaVuSans-Oblique-73" transform="translate(223.193359 0.015625)"/>
     <use xlink:href="#DejaVuSans-Oblique-69" transform="translate(275.292969 0.015625)"/>
     <use xlink:href="#DejaVuSans-Oblique-6e" transform="translate(303.076172 0.015625)"/>
     <use xlink:href="#DejaVuSans-28" transform="translate(366.455078 0.015625)"/>
     <use xlink:href="#DejaVuSans-Oblique-63" transform="translate(405.46875 0.015625)"/>
     <use xlink:href="#DejaVuSans-Oblique-6f" transform="translate(460.449219 0.015625)"/>
     <use xlink:href="#DejaVuSans-Oblique-73" transform="translate(521.630859 0.015625)"/>
     <use xlink:href="#DejaVuSans-28" transform="translate(573.730469 0.015625)"/>
     <use xlink:href="#DejaVuSans-Oblique-78" transform="translate(612.744141 0.015625)"/>
     <use xlink:href="#DejaVuSans-29" transform="translate(671.923828 0.015625)"/>
     <use xlink:href="#DejaVuSans-29" transform="translate(710.9375 0.015625)"/>
     <use xlink:href="#DejaVuSans-29" transform="translate(749.951172 0.015625)"/>
    </g>
   </g>
   <g id="legend_1">
    <g id="patch_7">
     <path d="M 149 292.38125 
L 326.078125 292.38125 
Q 330.078125 292.38125 330.078125 288.38125 
L 330.078125 143.6 
Q 330.078125 139.6 326.078125 139.6 
L 149 139.6 
Q 145 139.6 145 143.6 
L 145 288.38125 
Q 145 292.38125 149 292.38125 
z
" style="fill: #ffffff; opacity: 0.8; stroke: #cccccc; stroke-linejoin: miter"/>
    </g>
    <g id="line2d_20">
     <path d="M 153 155.796875 
L 173 155.796875 
L 193 155.796875 
" style="fill: none; stroke: #1f77b4; stroke-width: 1.5; stroke-linecap: square"/>
     <g>
      <use xlink:href="#mbe3b9b5c75" x="173" y="155.796875" style="fill: #1f77b4; stroke: #1f77b4"/>
     </g>
    </g>
    <g id="text_18">
     <!-- method #0 -->
     <g transform="translate(209 162.796875)scale(0.2 -0.2)">
      <defs>
       <path id="DejaVuSans-68" d="M 3513 2113 
L 3513 0 
L 2938 0 
L 2938 2094 
Q 2938 2591 2744 2837 
Q 2550 3084 2163 3084 
Q 1697 3084 1428 2787 
Q 1159 2491 1159 1978 
L 1159 0 
L 581 0 
L 581 4863 
L 1159 4863 
L 1159 2956 
Q 1366 3272 1645 3428 
Q 1925 3584 2291 3584 
Q 2894 3584 3203 3211 
Q 3513 2838 3513 2113 
z
" transform="scale(0.015625)"/>
       <path id="DejaVuSans-64" d="M 2906 2969 
L 2906 4863 
L 3481 4863 
L 3481 0 
L 2906 0 
L 2906 525 
Q 2725 213 2448 61 
Q 2172 -91 1784 -91 
Q 1150 -91 751 415 
Q 353 922 353 1747 
Q 353 2572 751 3078 
Q 1150 3584 1784 3584 
Q 2172 3584 2448 3432 
Q 2725 3281 2906 2969 
z
M 947 1747 
Q 947 1113 1208 752 
Q 1469 391 1925 391 
Q 2381 391 2643 752 
Q 2906 1113 2906 1747 
Q 2906 2381 2643 2742 
Q 2381 3103 1925 3103 
Q 1469 3103 1208 2742 
Q 947 2381 947 1747 
z
" transform="scale(0.015625)"/>
       <path id="DejaVuSans-23" d="M 3272 2816 
L 2363 2816 
L 2100 1772 
L 3016 1772 
L 3272 2816 
z
M 2803 4594 
L 2478 3297 
L 3391 3297 
L 3719 4594 
L 4219 4594 
L 3897 3297 
L 4872 3297 
L 4872 2816 
L 3775 2816 
L 3519 1772 
L 4513 1772 
L 4513 1294 
L 3397 1294 
L 3072 0 
L 2572 0 
L 2894 1294 
L 1978 1294 
L 1656 0 
L 1153 0 
L 1478 1294 
L 494 1294 
L 494 1772 
L 1594 1772 
L 1856 2816 
L 850 2816 
L 850 3297 
L 1978 3297 
L 2297 4594 
L 2803 4594 
z
" transform="scale(0.015625)"/>
      </defs>
      <use xlink:href="#DejaVuSans-6d"/>
      <use xlink:href="#DejaVuSans-65" x="97.412109"/>
      <use xlink:href="#DejaVuSans-74" x="158.935547"/>
      <use xlink:href="#DejaVuSans-68" x="198.144531"/>
      <use xlink:href="#DejaVuSans-6f" x="261.523438"/>
      <use xlink:href="#DejaVuSans-64" x="322.705078"/>
      <use xlink:href="#DejaVuSans-20" x="386.181641"/>
      <use xlink:href="#DejaVuSans-23" x="417.96875"/>
      <use xlink:href="#DejaVuSans-30" x="501.757812"/>
     </g>
    </g>
    <g id="line2d_21">
     <path d="M 153 185.153125 
L 173 185.153125 
L 193 185.153125 
" style="fill: none; stroke: #ff7f0e; stroke-width: 1.5; stroke-linecap: square"/>
     <g>
      <use xlink:href="#m7915473585" x="173" y="185.153125" style="fill: #ff7f0e; stroke: #ff7f0e"/>
     </g>
    </g>
    <g id="text_19">
     <!-- method #1 -->
     <g transform="translate(209 192.153125)scale(0.2 -0.2)">
      <use xlink:href="#DejaVuSans-6d"/>
      <use xlink:href="#DejaVuSans-65" x="97.412109"/>
      <use xlink:href="#DejaVuSans-74" x="158.935547"/>
      <use xlink:href="#DejaVuSans-68" x="198.144531"/>
      <use xlink:href="#DejaVuSans-6f" x="261.523438"/>
      <use xlink:href="#DejaVuSans-64" x="322.705078"/>
      <use xlink:href="#DejaVuSans-20" x="386.181641"/>
      <use xlink:href="#DejaVuSans-23" x="417.96875"/>
      <use xlink:href="#DejaVuSans-31" x="501.757812"/>
     </g>
    </g>
    <g id="line2d_22">
     <path d="M 153 214.509375 
L 173 214.509375 
L 193 214.509375 
" style="fill: none; stroke: #2ca02c; stroke-width: 1.5; stroke-linecap: square"/>
     <g>
      <use xlink:href="#m0b4fcc665a" x="173" y="214.509375" style="fill: #2ca02c; stroke: #2ca02c"/>
     </g>
    </g>
    <g id="text_20">
     <!-- method #2 -->
     <g transform="translate(209 221.509375)scale(0.2 -0.2)">
      <use xlink:href="#DejaVuSans-6d"/>
      <use xlink:href="#DejaVuSans-65" x="97.412109"/>
      <use xlink:href="#DejaVuSans-74" x="158.935547"/>
      <use xlink:href="#DejaVuSans-68" x="198.144531"/>
      <use xlink:href="#DejaVuSans-6f" x="261.523438"/>
      <use xlink:href="#DejaVuSans-64" x="322.705078"/>
      <use xlink:href="#DejaVuSans-20" x="386.181641"/>
      <use xlink:href="#DejaVuSans-23" x="417.96875"/>
      <use xlink:href="#DejaVuSans-32" x="501.757812"/>
     </g>
    </g>
    <g id="line2d_23">
     <path d="M 153 243.865625 
L 173 243.865625 
L 193 243.865625 
" style="fill: none; stroke: #d62728; stroke-width: 1.5; stroke-linecap: square"/>
     <g>
      <use xlink:href="#m58912bd282" x="173" y="243.865625" style="fill: #d62728; stroke: #d62728"/>
     </g>
    </g>
    <g id="text_21">
     <!-- method #3 -->
     <g transform="translate(209 250.865625)scale(0.2 -0.2)">
      <defs>
       <path id="DejaVuSans-33" d="M 2597 2516 
Q 3050 2419 3304 2112 
Q 3559 1806 3559 1356 
Q 3559 666 3084 287 
Q 2609 -91 1734 -91 
Q 1441 -91 1130 -33 
Q 819 25 488 141 
L 488 750 
Q 750 597 1062 519 
Q 1375 441 1716 441 
Q 2309 441 2620 675 
Q 2931 909 2931 1356 
Q 2931 1769 2642 2001 
Q 2353 2234 1838 2234 
L 1294 2234 
L 1294 2753 
L 1863 2753 
Q 2328 2753 2575 2939 
Q 2822 3125 2822 3475 
Q 2822 3834 2567 4026 
Q 2313 4219 1838 4219 
Q 1578 4219 1281 4162 
Q 984 4106 628 3988 
L 628 4550 
Q 988 4650 1302 4700 
Q 1616 4750 1894 4750 
Q 2613 4750 3031 4423 
Q 3450 4097 3450 3541 
Q 3450 3153 3228 2886 
Q 3006 2619 2597 2516 
z
" transform="scale(0.015625)"/>
      </defs>
      <use xlink:href="#DejaVuSans-6d"/>
      <use xlink:href="#DejaVuSans-65" x="97.412109"/>
      <use xlink:href="#DejaVuSans-74" x="158.935547"/>
      <use xlink:href="#DejaVuSans-68" x="198.144531"/>
      <use xlink:href="#DejaVuSans-6f" x="261.523438"/>
      <use xlink:href="#DejaVuSans-64" x="322.705078"/>
      <use xlink:href="#DejaVuSans-20" x="386.181641"/>
      <use xlink:href="#DejaVuSans-23" x="417.96875"/>
      <use xlink:href="#DejaVuSans-33" x="501.757812"/>
     </g>
    </g>
    <g id="line2d_24">
     <path d="M 153 273.221875 
L 173 273.221875 
L 193 273.221875 
" style="fill: none; stroke: #9467bd; stroke-width: 1.5; stroke-linecap: square"/>
     <g>
      <use xlink:href="#m40e5c03fcc" x="173" y="273.221875" style="fill: #9467bd; stroke: #9467bd"/>
     </g>
    </g>
    <g id="text_22">
     <!-- method #4 -->
     <g transform="translate(209 280.221875)scale(0.2 -0.2)">
      <use xlink:href="#DejaVuSans-6d"/>
      <use xlink:href="#DejaVuSans-65" x="97.412109"/>
      <use xlink:href="#DejaVuSans-74" x="158.935547"/>
      <use xlink:href="#DejaVuSans-68" x="198.144531"/>
      <use xlink:href="#DejaVuSans-6f" x="261.523438"/>
      <use xlink:href="#DejaVuSans-64" x="322.705078"/>
      <use xlink:href="#DejaVuSans-20" x="386.181641"/>
      <use xlink:href="#DejaVuSans-23" x="417.96875"/>
      <use xlink:href="#DejaVuSans-34" x="501.757812"/>
     </g>
    </g>
   </g>
  </g>
 </g>
 <defs>
  <clipPath id="p4560b661ed">
   <rect x="135" y="129.6" width="837" height="831.6"/>
  </clipPath>
 </defs>
</svg>
